<?xml version="1.0" standalone="no"?>
<!DOCTYPE svg PUBLIC "-//W3C//DTD SVG 20010904//EN"
 "http://www.w3.org/TR/2001/REC-SVG-20010904/DTD/svg10.dtd">
<svg version="1.0" xmlns="http://www.w3.org/2000/svg"
 width="800.000000pt" height="800.000000pt" viewBox="0 0 800.000000 800.000000"
 preserveAspectRatio="xMidYMid meet">

<g transform="translate(0.000000,800.000000) scale(0.100000,-0.100000)"
fill="#000000" stroke="none">
<path d="M0 4043 c0 -2176 2 -3954 5 -3952 2 3 34 133 70 289 402 1732 861
3072 1369 3995 222 402 433 708 660 953 l49 54 -7 121 c-16 279 37 542 127
635 46 48 87 62 184 62 230 0 475 -118 710 -344 l83 -79 82 6 c571 39 800 31
1068 -37 116 -29 257 -89 348 -147 80 -51 215 -162 355 -293 361 -336 709
-530 1248 -696 121 -38 141 -41 204 -35 81 7 168 -12 216 -47 17 -13 43 -45
58 -73 24 -46 26 -59 25 -165 -1 -90 -7 -137 -27 -216 -133 -508 -381 -817
-797 -992 -193 -80 -330 -111 -785 -177 -60 -9 -139 -20 -175 -26 -218 -32
-404 -112 -474 -204 -60 -79 -80 -141 -84 -264 -6 -163 16 -291 90 -521 129
-402 373 -884 707 -1395 155 -236 277 -428 300 -472 l12 -23 1189 0 1190 0 0
4000 0 4000 -4000 0 -4000 0 0 -3957z"/>
</g>
</svg>
